PathFileType	4	(X/Y/Z)	C:\Users\WrightLab\Desktop\Jo\P1_boxCal10.trc
DataRate	CameraRate	NumFrames	NumMarkers	Units	OrigDataRate	OrigDataStartFrame	OrigNumFrames
100.00	100.00	       19	19	mm	100.00	391	       625
Frame#	Time	Headset_Front			Headset_Back			Headset_Left			Headset_Right			Left_Shoulder			Right_Shoulder			Sternum			C7			Left Elbow			Right Elbow			Left Wrist			Right Wrist			Left ASIS			Right ASIS			S2			Left Knee			Right Knee			Left Ankle			Right Ankle			
		X1	Y1	Z1	X2	Y2	Z2	X3	Y3	Z3	X4	Y4	Z4	X5	Y5	Z5	X6	Y6	Z6	X7	Y7	Z7	X8	Y8	Z8	X9	Y9	Z9	X10	Y10	Z10	X11	Y11	Z11	X12	Y12	Z12	X13	Y13	Z13	X14	Y14	Z14	X15	Y15	Z15	X16	Y16	Z16	X17	Y17	Z17	X18	Y18	Z18	X19	Y19	Z19	

391	3.900	-183.61824	1412.73621	1252.92163	-169.28284	1514.72705	963.70721	-64.50065	1467.79773	1089.96851	-283.55368	1431.45508	1142.38171	27.42285	1281.08118	1008.56995	-349.91339	1256.93359	1071.02625	-154.02219	1179.20142	1181.59546	-168.14377	1269.02551	925.73419	112.95647	972.00684	929.68115	-417.76706	974.35168	1075.15662	224.41225	807.77570	977.15802	-374.20444	778.23303	1251.60449	-37.79303	903.40436	1197.51086	-236.60185	885.21362	1195.21155	-123.98755	887.72516	875.56732	76.82156	498.31073	1182.69971	-238.43069	437.01407	989.91913	108.81906	152.98885	1292.29407	-221.80949	123.75852	810.19946	
392	3.910	-182.52534	1411.99207	1263.29724	-165.17303	1514.24634	974.25635	-62.11607	1467.44971	1103.14026	-281.69144	1430.60278	1151.76709	30.67690	1280.53015	1019.75354	-346.54507	1256.70349	1080.71143	-151.77570	1179.19336	1192.97559	-163.98836	1268.29346	936.59973	116.98547	970.33234	946.11829	-415.44687	974.38684	1083.58167	228.13112	806.18762	995.41364	-376.51303	774.14264	1255.90430	-36.13185	903.15637	1211.64368	-235.00630	885.10309	1206.49072	-120.83029	887.67200	884.44604	75.97697	496.63104	1197.39929	-237.38315	436.86093	999.28326	104.61925	146.76520	1298.53296	-221.96956	128.03989	813.75464	
393	3.920	-181.80856	1411.46387	1273.78284	-160.94638	1513.84949	984.72314	-59.98540	1467.08374	1114.69604	-279.76202	1429.67188	1161.09595	34.94265	1279.86035	1032.92139	-343.21014	1256.39868	1090.23181	-149.57820	1179.18555	1204.50208	-159.03419	1267.66541	947.76196	120.64047	968.65619	961.24426	-412.99060	974.09467	1091.97754	231.29335	805.24548	1014.61035	-378.90948	770.01062	1259.40479	-34.27097	902.55505	1223.93176	-233.71249	885.60449	1217.92542	-115.84996	885.91595	900.96735	75.66010	494.56003	1212.38538	-237.20320	436.83578	1009.73859	101.07481	140.36792	1304.33923	-222.72383	132.10889	817.81543	
394	3.930	-181.78278	1411.50281	1284.14209	-156.83434	1513.36890	995.23065	-57.71228	1467.37891	1126.28540	-277.86032	1429.07678	1170.22388	39.21159	1278.78699	1045.21838	-339.75848	1256.43481	1099.36035	-147.79546	1180.03186	1217.34375	-153.69907	1266.39868	958.78394	125.36056	967.51208	976.04077	-410.74524	974.55829	1100.84656	233.99561	803.46881	1034.27051	-382.02377	766.93536	1262.75671	-32.58321	902.52673	1238.49817	-232.35205	886.06262	1229.74927	-111.57486	884.51605	914.75671	74.20219	491.90891	1227.88599	-236.48528	436.50351	1021.56885	101.08374	138.19301	1313.98230	-223.50304	136.86880	822.74567	
395	3.940	-181.03322	1411.62842	1294.59668	-154.87318	1514.71863	1006.23560	-55.67631	1468.20654	1137.77185	-276.06049	1428.75439	1179.29834	43.61901	1278.79590	1058.35742	-336.18857	1257.05896	1108.63977	-145.69144	1180.70825	1229.10718	-148.84482	1266.15271	969.37701	130.36978	965.95502	991.51929	-407.84818	975.31653	1108.93652	237.02333	802.55640	1052.29016	-385.32278	763.78516	1265.52197	-31.36789	902.04944	1251.11267	-230.83086	886.87439	1241.45483	-107.73605	884.28387	926.98895	74.75058	491.77512	1243.05408	-236.71655	437.18219	1034.13928	103.47897	139.23663	1323.37061	-224.21350	141.77879	828.54016	
396	3.950	-180.81061	1412.71765	1304.81958	-149.81165	1515.36304	1016.82947	-53.29029	1469.73596	1150.13586	-274.25485	1429.08057	1188.21497	47.46270	1278.39429	1070.85718	-332.56931	1258.01221	1117.18323	-142.60178	1181.45190	1239.46240	-144.03514	1266.43213	980.40887	134.21155	964.76202	1007.82471	-404.59521	976.24353	1117.82629	238.85504	801.69012	1071.01392	-389.21069	761.22186	1268.06055	-29.98533	902.68506	1265.54041	-229.19345	887.91693	1253.08240	-104.35769	883.96692	939.92462	75.69814	491.73224	1257.67041	-237.10202	436.94196	1047.90613	106.02679	138.28110	1330.25745	-226.35226	147.35475	836.08972	
397	3.960	-180.57455	1413.84583	1315.15564	-144.79694	1516.05945	1027.40552	-51.24616	1471.59778	1162.87573	-272.67966	1430.24841	1197.18372	51.53729	1278.36267	1085.05725	-329.38336	1259.50647	1125.69836	-140.53285	1183.61414	1250.87427	-138.39630	1266.74548	991.87811	137.39880	963.55054	1023.04053	-402.53598	977.64856	1126.09155	240.60667	800.48187	1089.70984	-393.35486	759.93469	1269.85120	-29.59732	903.09955	1278.49341	-228.41660	889.75403	1264.84717	-99.79868	883.00940	953.81549	76.56567	492.17947	1272.71277	-237.79802	436.25916	1062.84985	110.61007	137.23843	1337.81055	-227.63922	153.35037	844.68298	
398	3.970	-181.40436	1415.92944	1325.56531	-142.44492	1518.10779	1038.24646	-49.47007	1473.87500	1173.30127	-271.11978	1431.65674	1206.15576	55.11053	1278.48096	1097.74292	-326.60712	1261.10986	1134.80957	-138.35901	1185.44019	1262.31458	-133.89523	1267.70105	1002.62598	140.74181	963.27765	1039.45752	-399.45468	979.27539	1133.68774	242.47379	800.13995	1108.88000	-397.51416	759.15503	1271.52161	-28.98476	904.25299	1292.22327	-226.66032	891.25378	1276.30933	-97.28574	883.81940	965.99493	78.90957	495.33276	1285.38770	-240.02780	437.08633	1078.81616	113.56936	135.66284	1346.79309	-228.44734	159.12071	855.10516	
399	3.980	-181.70474	1417.91064	1335.90759	-138.39534	1518.96863	1048.77124	-47.43540	1473.36218	1183.66675	-269.74686	1433.24658	1214.89136	58.84518	1279.05347	1111.34583	-323.89938	1263.19275	1143.52246	-137.27898	1187.91223	1273.91846	-128.49898	1268.03857	1014.71869	144.31982	963.34406	1055.01392	-396.76517	981.30951	1141.93640	243.25920	799.89545	1127.74231	-402.00421	759.35913	1272.69409	-28.68392	906.37042	1305.47632	-225.13307	893.35681	1287.33374	-94.04710	884.33948	978.00104	80.37897	497.21143	1298.77222	-242.15126	436.71677	1096.29712	115.92577	133.41083	1353.37671	-229.64186	164.44751	865.95410	
400	3.990	-182.58121	1420.61597	1346.08777	-134.35052	1520.30627	1059.25525	-46.21122	1476.30688	1196.66064	-268.83319	1435.09973	1223.63025	61.41311	1280.53308	1124.83838	-321.52979	1265.51050	1152.60999	-136.22688	1189.94128	1284.83398	-124.79686	1270.02075	1026.20154	146.81740	963.96222	1072.35791	-392.92587	983.64819	1148.70776	243.78853	799.57568	1146.49097	-406.45154	760.48468	1273.78821	-28.22752	908.64636	1318.85791	-224.64059	896.39673	1298.09460	-90.70400	886.10980	988.55927	81.41002	501.62354	1312.26514	-245.47272	437.40256	1114.20728	116.61829	129.90211	1355.07422	-230.43594	170.88297	878.50989	
401	4.000	-183.00645	1422.89294	1356.27686	-131.08060	1521.37939	1069.79236	-44.95844	1477.96814	1208.79529	-267.69974	1437.01550	1232.33386	63.68523	1281.70886	1138.87708	-319.36365	1267.91711	1161.74451	-135.22926	1192.05640	1295.96753	-122.42678	1273.96716	1032.98743	149.68813	964.87085	1088.63367	-389.81741	986.13495	1155.42151	244.08148	800.49591	1165.60327	-411.10904	762.63855	1274.38770	-28.04997	911.03149	1331.43982	-223.83337	898.79895	1308.72375	-87.33134	887.46198	998.85303	81.73825	505.24774	1324.54932	-248.20584	437.25500	1133.98621	115.86554	127.56536	1357.04797	-230.27817	177.11813	891.60559	
402	4.010	-184.53345	1425.71936	1366.50586	-128.52829	1523.28162	1080.38855	-43.41727	1480.14478	1220.20410	-266.59610	1439.07617	1241.21375	65.88555	1283.69409	1151.78918	-317.15488	1270.60474	1170.94751	-134.59030	1194.18201	1306.90479	-118.87902	1274.98462	1047.31653	151.61938	966.53577	1105.31506	-386.37973	988.23816	1161.86682	244.71043	801.75555	1184.16309	-415.72089	764.65997	1275.19434	-27.76096	913.63568	1344.35107	-222.77934	901.31537	1318.52759	-84.78133	889.81342	1009.37427	82.15421	508.62134	1337.50513	-252.45346	438.31458	1153.48181	114.98882	126.63710	1358.47302	-230.19762	183.91713	907.56451	
403	4.020	-185.79709	1428.61987	1376.34900	-123.44262	1523.92615	1090.60706	-42.43774	1481.53259	1232.66406	-265.97418	1442.00256	1249.84924	67.55886	1285.33594	1166.26392	-315.18774	1272.79822	1179.88489	-134.95619	1196.19080	1317.74695	-114.95672	1277.17749	1058.03979	153.70024	967.52692	1122.64612	-383.63336	990.71838	1168.37280	244.54543	802.86151	1203.28113	-420.06055	767.78516	1275.86475	-28.16546	915.64215	1356.55371	-222.57576	903.77655	1328.40735	-83.01114	892.02600	1019.82611	83.00435	510.94653	1347.57886	-256.28296	439.25418	1174.03967	114.40664	126.07900	1359.83667	-229.84442	190.00256	923.08496	
404	4.030	-186.87097	1430.97131	1386.29517	-120.96597	1525.95276	1101.10791	-41.46774	1483.43384	1244.10925	-265.62607	1444.99536	1258.56543	68.67418	1288.22095	1179.35901	-313.37201	1275.18665	1188.34680	-135.58989	1198.00354	1327.89185	-112.08367	1280.10803	1067.84058	155.49823	969.79132	1138.82483	-383.09866	994.68951	1174.08350	244.49088	805.42371	1222.48438	-425.28464	770.89276	1277.29736	-28.32893	917.80713	1368.47021	-222.26125	905.89679	1337.76782	-80.52988	893.65393	1031.62378	83.58987	512.42303	1357.81689	-260.62927	441.39310	1194.36707	113.52895	126.03199	1360.87585	-230.16635	197.31155	940.63586	
405	4.040	-189.54564	1432.02014	1392.84766	-118.83963	1528.25415	1111.62134	-40.83928	1484.53748	1255.04395	-265.48392	1448.08350	1267.05334	69.83812	1290.77832	1194.01416	-312.14389	1277.60913	1196.59265	-136.71414	1199.66394	1337.80994	-109.31409	1281.99890	1078.37219	157.21422	972.35425	1155.78186	-382.78607	997.53217	1179.15955	243.04732	807.49579	1241.60767	-429.82858	774.55841	1278.71790	-28.86546	919.60468	1380.69739	-222.60168	907.85767	1346.83594	-78.55479	895.57239	1042.88098	84.78596	511.64984	1367.95825	-265.15170	444.11597	1215.04932	113.24448	127.12279	1361.53369	-229.32768	203.94279	959.35388	
406	4.050	-191.20277	1435.21631	1402.80859	-115.55237	1530.00916	1121.96460	-40.73732	1486.70874	1266.22070	-265.50894	1450.59094	1275.58911	70.86829	1293.47522	1207.89307	-310.96753	1279.96851	1204.20483	-137.91313	1201.47888	1347.89697	-106.58462	1284.35559	1088.90417	158.73198	974.21979	1174.27759	-383.14700	1000.93219	1185.24622	243.36320	810.14404	1259.68640	-434.76801	777.94379	1280.11487	-29.33217	920.93146	1391.78308	-222.63754	907.12433	1354.42371	-76.28799	897.81586	1053.42603	86.03381	509.02396	1374.71411	-268.04510	447.20602	1235.65576	112.81635	127.04790	1361.87341	-227.49677	210.78531	977.49976	
407	4.060	-193.50116	1436.80591	1411.71350				-40.68443	1487.87695	1277.35254	-267.55960	1453.51831	1283.98828	71.78817	1295.10120	1222.09375	-310.06641	1282.15881	1211.02893	-140.24551	1202.99731	1357.54663	-103.90603	1287.32605	1099.71912	160.44984	977.41815	1190.08887	-383.18124	1003.13849	1190.35620	241.79015	812.63086	1280.56311	-439.89041	780.79114	1280.71558	-29.66302	923.53711	1406.31458	-224.02838	910.92029	1363.74597	-73.77244	900.06659	1064.37952	88.52787	505.69485	1381.28931	-271.12759	452.18881	1256.05066	112.42287	126.81694	1362.02002	-225.71939	217.45384	994.62439	
408	4.070	-195.26035	1438.71460	1419.68970				-40.92427	1489.51074	1289.00977	-268.06842	1456.12402	1292.08057	71.31380	1297.81226	1236.12732	-309.70206	1284.11365	1217.53113	-143.42516	1205.15210	1367.78796	-100.61234	1289.63843	1110.44214	162.03709	979.89337	1206.77808	-384.21732	1005.83978	1195.35596	240.74284	815.99451	1299.64038	-443.38327	783.94745	1282.97815	-31.23867	925.04028	1416.08972	-225.55251	912.04468	1371.89453	-71.24550	902.87518	1074.60852	90.44482	502.24670	1386.90161	-274.43268	457.54675	1276.79297	111.38400	125.94397	1361.60425	-223.63457	223.28214	1012.80432	
409	4.080	-197.43840	1441.02747	1429.32715				-42.00515	1492.02515	1301.81580	-268.44223	1458.54028	1300.10339	71.77831	1300.08142	1250.08093	-309.56979	1285.96301	1223.41235	-145.74760	1206.28857	1376.19531	-98.64487	1292.40149	1120.25269	164.17715	982.59637	1224.30261	-385.70398	1008.68329	1200.02502	239.83002	818.57660	1318.59009	-448.53955	787.48120	1283.49243	-33.44687	925.69647	1424.73987	-227.49370	913.19452	1379.91150	-67.62540	905.70966	1086.00806	90.90956	498.31558	1391.36255	-278.16312	463.75565	1297.87781	110.70640	125.91820	1361.60022	-221.45575	227.10866	1033.54492	
